Coordinates
version=1
nRows=6
nColumns=36
inDegrees=yes

Units are S.I. units (second, meters, Newtons, ...)
Angles are in degrees.

endheader
time	pelvis_tilt	pelvis_list	pelvis_rotation	pelvis_tx	pelvis_ty	pelvis_tz	hip_flexion_r	hip_adduction_r	hip_rotation_r	knee_angle_r	ankle_angle_r	subtalar_angle_r	hip_flexion_l	hip_adduction_l	hip_rotation_l	knee_angle_l	ankle_angle_l	subtalar_angle_l	lumbar_extension	lumbar_bending	lumbar_rotation	arm_flex_r	arm_add_r	arm_rot_r	elbow_flex_r	pro_sup_r	wrist_flex_r	wrist_dev_r	arm_flex_l	arm_add_l	arm_rot_l	elbow_flex_l	pro_sup_l	wrist_flex_l	wrist_dev_l
      1.75000000	      2.74312793	     -1.41111032	      4.39048300	     -0.75762299	      0.91206736	      0.22296501	     -9.39813889	      6.15413711	     -6.56889465	    -11.65558853	     12.22261403	      1.58372952	     26.21706430	      1.63730884	      3.00055160	    -28.43069513	      1.98567721	     -9.14006634	    -10.12822898	      3.40193064	      2.12984057	      2.32318225	    -22.90371237	      7.67270355	     37.83178693	     86.51662706	      0.00000000	      0.00000000	     -2.68217928	    -14.39275391	     20.33860530	     15.23109362	     86.51662706	      0.00000000	      0.00000000
      1.76000000	      2.89825065	     -1.50368631	      4.44560776	     -0.74500344	      0.91029022	      0.22231326	    -10.78592444	      6.33532423	     -6.50236396	    -11.03438772	     12.63754525	      1.73636743	     26.31652500	      1.53220794	      2.95381915	    -25.50907303	      2.67894144	     -8.24590761	    -10.37182850	      3.51739827	      2.26984316	      2.64373047	    -23.24583836	      7.65174145	     38.57484256	     86.51662706	      0.00000000	      0.00000000	     -2.95076472	    -14.34275843	     20.24838971	     14.78405405	     86.51662706	      0.00000000	      0.00000000
      1.77000000	      3.00660615	     -1.64857011	      4.49438207	     -0.73227186	      0.90839171	      0.22159291	    -12.01032705	      6.54108206	     -6.48773738	    -10.63692492	     12.99357249	      1.92220073	     26.45756268	      1.38776249	      2.82475590	    -22.80636873	      3.22927058	     -7.23204988	    -10.54409415	      3.68257268	      2.39716049	      2.95111968	    -23.55014447	      7.55634238	     39.20091686	     86.51662706	      0.00000000	      0.00000000	     -3.22311848	    -14.27899785	     20.17404437	     14.37287765	     86.51662706	      0.00000000	      0.00000000
      1.78000000	      3.07620623	     -1.82998896	      4.53451649	     -0.71944598	      0.90640295	      0.22080369	    -13.08748877	      6.75490539	     -6.50345157	    -10.44663393	     13.29568139	      2.14382770	     26.63125866	      1.21841413	      2.60963567	    -20.35451564	      3.67642640	     -6.06251130	    -10.65879719	      3.88200432	      2.52078775	      3.23249118	    -23.82290904	      7.39679268	     39.74161818	     86.51662706	      0.00000000	      0.00000000	     -3.48539695	    -14.20075901	     20.11919786	     13.98140181	     86.51662706	      0.00000000	      0.00000000
      1.79000000	      3.11530451	     -2.02958775	      4.56076426	     -0.70655076	      0.90436890	      0.21994671	    -14.03343629	      6.95632545	     -6.52698257	    -10.44970248	     13.54746789	      2.40523558	     26.82674523	      1.04275659	      2.31155740	    -18.20176825	      4.06223928	     -4.71395459	    -10.73117973	      4.09542733	      2.65134097	      3.47239593	    -24.06987433	      7.18525512	     40.23159016	     86.51662706	      0.00000000	      0.00000000	     -3.72302926	    -14.10803388	     20.08994273	     13.59170408	     86.51662706	      0.00000000	      0.00000000
      1.80000000	      3.13148892	     -2.22897196	      4.56463487	     -0.69359843	      0.90234751	      0.21901730	    -14.86108856	      7.12405021	     -6.54151781	    -10.63893892	     13.74954105	      2.71131053	     27.03339637	      0.87997445	      1.94610199	    -16.40617964	      4.41715364	     -3.19492124	    -10.77440758	      4.30068382	      2.79846489	      3.65575989	    -24.29379561	      6.93315489	     40.69932011	     86.51662706	      0.00000000	      0.00000000	     -3.92587094	    -14.00225158	     20.09455032	     13.18865794	     86.51662706	      0.00000000	      0.00000000
